<svg xmlns="http://www.w3.org/2000/svg" xmlns:xlink="http://www.w3.org/1999/xlink" width="100" zoomAndPan="magnify" viewBox="0 0 75 74.999997" height="100" preserveAspectRatio="xMidYMid meet" version="1.2"><defs><clipPath id="5818909b68"><path d="M 5.699219 5.699219 L 69.296875 5.699219 L 69.296875 69.449219 L 5.699219 69.449219 Z M 5.699219 5.699219 "/></clipPath></defs><g id="077c037ef9"><g clip-rule="nonzero" clip-path="url(#5818909b68)"><path style=" stroke:none;fill-rule:nonzero;fill:#05a457;fill-opacity:1;" d="M 37.5 5.699219 C 38.539062 5.699219 39.578125 5.75 40.617188 5.851562 C 41.652344 5.957031 42.679688 6.109375 43.703125 6.3125 C 44.722656 6.515625 45.734375 6.765625 46.730469 7.070312 C 47.726562 7.371094 48.707031 7.722656 49.667969 8.121094 C 50.628906 8.519531 51.570312 8.964844 52.488281 9.453125 C 53.40625 9.945312 54.300781 10.480469 55.164062 11.058594 C 56.03125 11.636719 56.867188 12.257812 57.671875 12.917969 C 58.476562 13.578125 59.246094 14.277344 59.984375 15.011719 C 60.71875 15.75 61.417969 16.519531 62.078125 17.324219 C 62.742188 18.132812 63.359375 18.964844 63.9375 19.832031 C 64.515625 20.699219 65.050781 21.589844 65.542969 22.507812 C 66.035156 23.425781 66.480469 24.367188 66.878906 25.328125 C 67.277344 26.292969 67.625 27.273438 67.929688 28.269531 C 68.230469 29.265625 68.484375 30.273438 68.6875 31.296875 C 68.890625 32.316406 69.042969 33.34375 69.144531 34.382812 C 69.246094 35.417969 69.296875 36.457031 69.296875 37.5 C 69.296875 38.539062 69.246094 39.578125 69.144531 40.617188 C 69.042969 41.652344 68.890625 42.679688 68.6875 43.703125 C 68.484375 44.722656 68.230469 45.734375 67.929688 46.730469 C 67.625 47.726562 67.277344 48.707031 66.878906 49.667969 C 66.480469 50.628906 66.035156 51.570312 65.542969 52.488281 C 65.050781 53.40625 64.515625 54.300781 63.9375 55.164062 C 63.359375 56.03125 62.742188 56.867188 62.078125 57.671875 C 61.417969 58.476562 60.71875 59.246094 59.984375 59.984375 C 59.246094 60.71875 58.476562 61.417969 57.671875 62.078125 C 56.867188 62.742188 56.03125 63.359375 55.164062 63.9375 C 54.300781 64.515625 53.40625 65.050781 52.488281 65.542969 C 51.570312 66.035156 50.628906 66.480469 49.667969 66.878906 C 48.707031 67.277344 47.726562 67.625 46.730469 67.929688 C 45.734375 68.230469 44.722656 68.484375 43.703125 68.6875 C 42.679688 68.890625 41.652344 69.042969 40.617188 69.144531 C 39.578125 69.246094 38.539062 69.296875 37.5 69.296875 C 36.457031 69.296875 35.417969 69.246094 34.382812 69.144531 C 33.34375 69.042969 32.316406 68.890625 31.296875 68.6875 C 30.273438 68.484375 29.265625 68.230469 28.269531 67.929688 C 27.273438 67.625 26.292969 67.277344 25.328125 66.878906 C 24.367188 66.480469 23.425781 66.035156 22.507812 65.542969 C 21.589844 65.050781 20.699219 64.515625 19.832031 63.9375 C 18.964844 63.359375 18.132812 62.742188 17.324219 62.078125 C 16.519531 61.417969 15.75 60.71875 15.011719 59.984375 C 14.277344 59.246094 13.578125 58.476562 12.917969 57.671875 C 12.257812 56.867188 11.636719 56.03125 11.058594 55.164062 C 10.480469 54.300781 9.945312 53.40625 9.453125 52.488281 C 8.964844 51.570312 8.519531 50.628906 8.121094 49.667969 C 7.722656 48.707031 7.371094 47.726562 7.070312 46.730469 C 6.765625 45.734375 6.515625 44.722656 6.3125 43.703125 C 6.109375 42.679688 5.957031 41.652344 5.851562 40.617188 C 5.75 39.578125 5.699219 38.539062 5.699219 37.5 C 5.699219 36.457031 5.75 35.417969 5.851562 34.382812 C 5.957031 33.347656 6.109375 32.316406 6.3125 31.296875 C 6.515625 30.273438 6.769531 29.265625 7.070312 28.269531 C 7.371094 27.273438 7.722656 26.292969 8.121094 25.332031 C 8.519531 24.367188 8.964844 23.429688 9.457031 22.507812 C 9.945312 21.589844 10.480469 20.699219 11.058594 19.832031 C 11.640625 18.96875 12.257812 18.132812 12.917969 17.328125 C 13.578125 16.523438 14.277344 15.75 15.015625 15.015625 C 15.75 14.277344 16.523438 13.578125 17.328125 12.917969 C 18.132812 12.257812 18.96875 11.640625 19.832031 11.058594 C 20.699219 10.480469 21.589844 9.945312 22.507812 9.457031 C 23.429688 8.964844 24.367188 8.519531 25.332031 8.121094 C 26.292969 7.722656 27.273438 7.371094 28.269531 7.070312 C 29.265625 6.769531 30.273438 6.515625 31.296875 6.3125 C 32.316406 6.109375 33.347656 5.957031 34.382812 5.851562 C 35.417969 5.75 36.457031 5.699219 37.5 5.699219 Z M 21.808594 41.683594 L 43.082031 41.683594 L 39.160156 45.617188 C 38.335938 46.429688 37.929688 47.414062 37.9375 48.570312 C 37.941406 48.980469 38.003906 49.382812 38.125 49.777344 C 38.246094 50.167969 38.421875 50.535156 38.652344 50.878906 C 38.882812 51.21875 39.15625 51.519531 39.476562 51.78125 C 39.796875 52.039062 40.144531 52.25 40.523438 52.40625 C 40.90625 52.566406 41.300781 52.664062 41.710938 52.707031 C 42.117188 52.75 42.527344 52.730469 42.929688 52.652344 C 43.332031 52.574219 43.71875 52.4375 44.082031 52.25 C 44.449219 52.058594 44.777344 51.816406 45.070312 51.53125 L 56.140625 40.460938 C 56.335938 40.265625 56.511719 40.054688 56.664062 39.828125 C 56.816406 39.597656 56.945312 39.355469 57.054688 39.101562 C 57.160156 38.847656 57.238281 38.585938 57.292969 38.316406 C 57.347656 38.046875 57.375 37.773438 57.375 37.5 C 57.375 37.222656 57.347656 36.949219 57.292969 36.679688 C 57.238281 36.410156 57.160156 36.148438 57.054688 35.894531 C 56.945312 35.640625 56.816406 35.398438 56.664062 35.171875 C 56.511719 34.941406 56.335938 34.730469 56.140625 34.539062 L 45.070312 23.46875 C 44.777344 23.179688 44.449219 22.941406 44.082031 22.75 C 43.71875 22.558594 43.332031 22.421875 42.929688 22.347656 C 42.527344 22.269531 42.117188 22.25 41.710938 22.292969 C 41.300781 22.332031 40.90625 22.433594 40.523438 22.589844 C 40.144531 22.75 39.796875 22.957031 39.476562 23.21875 C 39.15625 23.476562 38.882812 23.78125 38.652344 24.121094 C 38.421875 24.460938 38.246094 24.828125 38.125 25.222656 C 38.003906 25.613281 37.941406 26.015625 37.9375 26.429688 C 37.929688 27.585938 38.335938 28.566406 39.160156 29.378906 L 43.082031 33.316406 L 21.808594 33.316406 C 21.535156 33.316406 21.261719 33.34375 20.992188 33.394531 C 20.722656 33.449219 20.460938 33.527344 20.207031 33.632812 C 19.953125 33.738281 19.710938 33.867188 19.484375 34.019531 C 19.253906 34.171875 19.042969 34.347656 18.851562 34.539062 C 18.65625 34.734375 18.480469 34.945312 18.328125 35.175781 C 18.175781 35.402344 18.046875 35.644531 17.941406 35.898438 C 17.835938 36.152344 17.757812 36.414062 17.703125 36.683594 C 17.652344 36.953125 17.625 37.222656 17.625 37.5 C 17.625 37.773438 17.652344 38.046875 17.703125 38.316406 C 17.757812 38.585938 17.835938 38.847656 17.941406 39.101562 C 18.046875 39.355469 18.175781 39.59375 18.328125 39.824219 C 18.480469 40.050781 18.65625 40.261719 18.851562 40.457031 C 19.042969 40.652344 19.253906 40.824219 19.484375 40.976562 C 19.710938 41.128906 19.953125 41.257812 20.207031 41.363281 C 20.460938 41.46875 20.722656 41.546875 20.992188 41.601562 C 21.261719 41.65625 21.535156 41.683594 21.808594 41.683594 Z M 21.808594 41.683594 "/></g></g></svg>