<svg xmlns="http://www.w3.org/2000/svg" xmlns:xlink="http://www.w3.org/1999/xlink" width="100" zoomAndPan="magnify" viewBox="0 0 75 74.999997" height="100" preserveAspectRatio="xMidYMid meet" version="1.2"><defs><clipPath id="a3d84ff4d5"><path d="M 5.699219 5.699219 L 69.449219 5.699219 L 69.449219 69.449219 L 5.699219 69.449219 Z M 5.699219 5.699219 "/></clipPath></defs><g id="de97b5b383"><g clip-rule="nonzero" clip-path="url(#a3d84ff4d5)"><path style=" stroke:none;fill-rule:nonzero;fill:#05a457;fill-opacity:1;" d="M 37.5 5.699219 C 36.457031 5.699219 35.417969 5.75 34.382812 5.851562 C 33.34375 5.957031 32.316406 6.109375 31.296875 6.3125 C 30.273438 6.515625 29.265625 6.765625 28.269531 7.070312 C 27.273438 7.371094 26.292969 7.722656 25.328125 8.121094 C 24.367188 8.519531 23.425781 8.964844 22.507812 9.453125 C 21.589844 9.945312 20.699219 10.480469 19.832031 11.058594 C 18.964844 11.636719 18.132812 12.257812 17.324219 12.917969 C 16.519531 13.578125 15.75 14.277344 15.011719 15.011719 C 14.277344 15.75 13.578125 16.519531 12.917969 17.324219 C 12.257812 18.132812 11.636719 18.964844 11.058594 19.832031 C 10.480469 20.699219 9.945312 21.589844 9.453125 22.507812 C 8.964844 23.425781 8.519531 24.367188 8.121094 25.328125 C 7.722656 26.292969 7.371094 27.273438 7.070312 28.269531 C 6.765625 29.265625 6.515625 30.273438 6.3125 31.296875 C 6.109375 32.316406 5.957031 33.34375 5.851562 34.382812 C 5.75 35.417969 5.699219 36.457031 5.699219 37.5 C 5.699219 38.539062 5.75 39.578125 5.851562 40.617188 C 5.957031 41.652344 6.109375 42.679688 6.3125 43.703125 C 6.515625 44.722656 6.765625 45.734375 7.070312 46.730469 C 7.371094 47.726562 7.722656 48.707031 8.121094 49.667969 C 8.519531 50.628906 8.964844 51.570312 9.453125 52.488281 C 9.945312 53.40625 10.480469 54.300781 11.058594 55.164062 C 11.636719 56.03125 12.257812 56.867188 12.917969 57.671875 C 13.578125 58.476562 14.277344 59.246094 15.011719 59.984375 C 15.75 60.71875 16.519531 61.417969 17.324219 62.078125 C 18.132812 62.742188 18.964844 63.359375 19.832031 63.9375 C 20.699219 64.515625 21.589844 65.050781 22.507812 65.542969 C 23.425781 66.035156 24.367188 66.480469 25.328125 66.878906 C 26.292969 67.277344 27.273438 67.625 28.269531 67.929688 C 29.265625 68.230469 30.273438 68.484375 31.296875 68.6875 C 32.316406 68.890625 33.34375 69.042969 34.382812 69.144531 C 35.417969 69.246094 36.457031 69.296875 37.5 69.296875 C 38.539062 69.296875 39.578125 69.246094 40.617188 69.144531 C 41.652344 69.042969 42.679688 68.890625 43.703125 68.6875 C 44.722656 68.484375 45.734375 68.230469 46.730469 67.929688 C 47.726562 67.625 48.707031 67.277344 49.667969 66.878906 C 50.628906 66.480469 51.570312 66.035156 52.488281 65.542969 C 53.40625 65.050781 54.300781 64.515625 55.164062 63.9375 C 56.03125 63.359375 56.867188 62.742188 57.671875 62.078125 C 58.476562 61.417969 59.246094 60.71875 59.984375 59.984375 C 60.71875 59.246094 61.417969 58.476562 62.078125 57.671875 C 62.742188 56.867188 63.359375 56.03125 63.9375 55.164062 C 64.515625 54.300781 65.050781 53.40625 65.542969 52.488281 C 66.035156 51.570312 66.480469 50.628906 66.878906 49.667969 C 67.277344 48.707031 67.625 47.726562 67.929688 46.730469 C 68.230469 45.734375 68.484375 44.722656 68.6875 43.703125 C 68.890625 42.679688 69.042969 41.652344 69.144531 40.617188 C 69.246094 39.578125 69.296875 38.539062 69.296875 37.5 C 69.296875 36.457031 69.246094 35.417969 69.144531 34.382812 C 69.042969 33.347656 68.890625 32.316406 68.6875 31.296875 C 68.484375 30.273438 68.230469 29.265625 67.925781 28.269531 C 67.625 27.273438 67.273438 26.292969 66.875 25.332031 C 66.476562 24.367188 66.03125 23.429688 65.542969 22.507812 C 65.050781 21.589844 64.515625 20.699219 63.9375 19.832031 C 63.359375 18.96875 62.738281 18.132812 62.078125 17.328125 C 61.417969 16.523438 60.71875 15.75 59.984375 15.015625 C 59.246094 14.277344 58.476562 13.578125 57.671875 12.917969 C 56.867188 12.257812 56.03125 11.640625 55.164062 11.058594 C 54.296875 10.480469 53.40625 9.945312 52.488281 9.457031 C 51.570312 8.964844 50.628906 8.519531 49.667969 8.121094 C 48.703125 7.722656 47.726562 7.371094 46.730469 7.070312 C 45.734375 6.769531 44.722656 6.515625 43.703125 6.3125 C 42.679688 6.109375 41.652344 5.957031 40.617188 5.851562 C 39.578125 5.75 38.539062 5.699219 37.5 5.699219 Z M 53.191406 41.683594 L 31.914062 41.683594 L 35.839844 45.617188 C 36.660156 46.429688 37.066406 47.414062 37.0625 48.570312 C 37.058594 48.980469 36.996094 49.382812 36.871094 49.777344 C 36.75 50.167969 36.574219 50.535156 36.34375 50.878906 C 36.113281 51.21875 35.839844 51.519531 35.519531 51.78125 C 35.203125 52.039062 34.851562 52.25 34.472656 52.40625 C 34.09375 52.566406 33.699219 52.664062 33.289062 52.707031 C 32.878906 52.75 32.472656 52.730469 32.066406 52.652344 C 31.664062 52.574219 31.28125 52.4375 30.914062 52.25 C 30.550781 52.058594 30.222656 51.816406 29.925781 51.53125 L 18.855469 40.460938 C 18.660156 40.265625 18.488281 40.054688 18.332031 39.828125 C 18.179688 39.597656 18.050781 39.355469 17.945312 39.101562 C 17.839844 38.847656 17.757812 38.585938 17.707031 38.316406 C 17.652344 38.046875 17.625 37.773438 17.625 37.5 C 17.625 37.222656 17.652344 36.949219 17.707031 36.679688 C 17.757812 36.410156 17.839844 36.148438 17.945312 35.894531 C 18.050781 35.640625 18.179688 35.398438 18.332031 35.171875 C 18.488281 34.941406 18.660156 34.730469 18.855469 34.539062 L 29.925781 23.46875 C 30.222656 23.179688 30.550781 22.941406 30.914062 22.75 C 31.28125 22.558594 31.664062 22.421875 32.066406 22.347656 C 32.472656 22.269531 32.878906 22.25 33.289062 22.292969 C 33.699219 22.332031 34.09375 22.433594 34.472656 22.589844 C 34.851562 22.75 35.203125 22.957031 35.519531 23.21875 C 35.839844 23.476562 36.113281 23.78125 36.34375 24.121094 C 36.574219 24.460938 36.75 24.828125 36.871094 25.222656 C 36.996094 25.613281 37.058594 26.015625 37.0625 26.429688 C 37.066406 27.585938 36.660156 28.566406 35.839844 29.378906 L 31.914062 33.316406 L 53.191406 33.316406 C 53.464844 33.316406 53.734375 33.34375 54.003906 33.394531 C 54.273438 33.449219 54.535156 33.527344 54.789062 33.632812 C 55.042969 33.738281 55.285156 33.867188 55.515625 34.019531 C 55.742188 34.171875 55.953125 34.347656 56.148438 34.539062 C 56.34375 34.734375 56.515625 34.945312 56.667969 35.175781 C 56.820312 35.402344 56.949219 35.644531 57.054688 35.898438 C 57.160156 36.152344 57.238281 36.414062 57.292969 36.683594 C 57.347656 36.953125 57.375 37.222656 57.375 37.5 C 57.375 37.773438 57.347656 38.046875 57.292969 38.316406 C 57.238281 38.585938 57.160156 38.847656 57.054688 39.101562 C 56.949219 39.355469 56.820312 39.59375 56.667969 39.824219 C 56.515625 40.050781 56.34375 40.261719 56.148438 40.457031 C 55.953125 40.652344 55.742188 40.824219 55.515625 40.976562 C 55.285156 41.128906 55.042969 41.257812 54.789062 41.363281 C 54.535156 41.46875 54.273438 41.546875 54.003906 41.601562 C 53.734375 41.65625 53.464844 41.683594 53.191406 41.683594 Z M 53.191406 41.683594 "/></g></g></svg>